<?xml version="1.0" encoding="UTF-8" standalone="no"?>
<!-- Created with Inkscape (http://www.inkscape.org/) -->
<svg
   xmlns:dc="http://purl.org/dc/elements/1.1/"
   xmlns:cc="http://creativecommons.org/ns#"
   xmlns:rdf="http://www.w3.org/1999/02/22-rdf-syntax-ns#"
   xmlns:svg="http://www.w3.org/2000/svg"
   xmlns="http://www.w3.org/2000/svg"
   xmlns:sodipodi="http://sodipodi.sourceforge.net/DTD/sodipodi-0.dtd"
   xmlns:inkscape="http://www.inkscape.org/namespaces/inkscape"
   width="193.83418"
   height="193.05136"
   id="svg2"
   sodipodi:version="0.32"
   inkscape:version="0.46"
   version="1.0"
   sodipodi:docname="Logo.svg"
   inkscape:output_extension="org.inkscape.output.svg.inkscape">
  <defs
     id="defs4">
    <inkscape:perspective
       sodipodi:type="inkscape:persp3d"
       inkscape:vp_x="0 : 526.18109 : 1"
       inkscape:vp_y="0 : 1000 : 0"
       inkscape:vp_z="744.09448 : 526.18109 : 1"
       inkscape:persp3d-origin="372.04724 : 350.78739 : 1"
       id="perspective10" />
    <inkscape:perspective
       id="perspective2447"
       inkscape:persp3d-origin="372.04724 : 350.78739 : 1"
       inkscape:vp_z="744.09448 : 526.18109 : 1"
       inkscape:vp_y="0 : 1000 : 0"
       inkscape:vp_x="0 : 526.18109 : 1"
       sodipodi:type="inkscape:persp3d" />
    <inkscape:perspective
       id="perspective2464"
       inkscape:persp3d-origin="372.04724 : 350.78739 : 1"
       inkscape:vp_z="744.09448 : 526.18109 : 1"
       inkscape:vp_y="0 : 1000 : 0"
       inkscape:vp_x="0 : 526.18109 : 1"
       sodipodi:type="inkscape:persp3d" />
  </defs>
  <sodipodi:namedview
     id="base"
     pagecolor="#ffffff"
     bordercolor="#666666"
     borderopacity="1.0"
     inkscape:pageopacity="0.0"
     inkscape:pageshadow="2"
     inkscape:zoom="0.47"
     inkscape:cx="340.7539"
     inkscape:cy="564.83359"
     inkscape:document-units="px"
     inkscape:current-layer="layer1"
     showgrid="false"
     inkscape:window-width="1280"
     inkscape:window-height="949"
     inkscape:window-x="0"
     inkscape:window-y="25" />
  <metadata
     id="metadata7">
    <rdf:RDF>
      <cc:Work
         rdf:about="">
        <dc:format>image/svg+xml</dc:format>
        <dc:type
           rdf:resource="http://purl.org/dc/dcmitype/StillImage" />
      </cc:Work>
    </rdf:RDF>
  </metadata>
  <g
     inkscape:label="Ebene 1"
     inkscape:groupmode="layer"
     id="layer1"
     transform="translate(-205.08813,-344.64525)">
    <path
       style="fill:#cc0000;fill-opacity:1"
       d="M 259.25431,535.5272 C 234.7436,529.10504 214.86585,509.2314 207.37045,483.65407 C 204.98056,475.49882 204.20518,417.67508 206.32128,405.41275 C 210.99243,378.34445 229.18482,357.06598 255.5248,347.86256 C 266.83503,344.64168 278.828,344.90664 298.5248,344.73852 C 339.16169,344.3568 343.20015,344.85156 357.5248,351.96673 C 381.59182,363.92102 395.35206,384.08882 398.17245,411.5423 C 399.74347,426.83448 398.67268,474.08899 396.56359,482.5423 C 390.1193,508.37117 368.72413,529.68748 342.96091,535.94741 C 332.47577,538.49508 269.37245,538.1783 259.25431,535.5272 z M 341.25836,529.61044 C 365.61353,523.38144 383.84495,505.20528 390.04214,480.97452 C 393.01482,469.35144 393.02238,412.76272 390.0528,401.15178 C 383.82405,376.79759 363.20873,357.06444 338.81696,352.10841 C 328.06535,349.92386 274.79346,349.88464 264.55349,352.05374 C 240.13094,357.2271 220.39312,376.30699 213.35845,401.5423 C 210.68482,411.13333 210.6294,470.73581 213.285,480.5423 C 219.92112,505.04797 239.16614,524.25605 262.83324,529.99544 C 272.66109,532.37875 331.56504,532.08958 341.25836,529.61044 z M 288.5248,513.94439 L 287.99194,462.98888 C 279.45982,458.79051 271.05092,454.3076 262.23253,450.73036 L 262.0248,481.12143 L 248.13566,488.62327 L 234.0248,481.51716 C 234.53098,454.50186 234.02902,429.75225 234.63416,403.5423 L 301.98587,437.66385 C 324.6094,426.79334 346.24601,413.7536 369.18849,403.5423 L 370.0248,481.12143 L 355.97233,488.71149 L 341.03338,481.0423 L 341.0248,450.55244 L 316.05766,462.98888 L 315.5248,513.91053 L 301.5248,521.36591 L 288.5248,513.94439 z M 301.4282,361.12454 C 343.74616,360.95229 345.30557,423.5659 303.0248,425.23146 C 259.38431,425.28047 258.42885,362.79844 301.4282,361.12454 z M 295.6516,413.97609 C 292.58713,409.33887 289.5149,403.84608 288.49253,398.2923 C 287.8063,394.56449 287.7718,394.42168 282.91351,394.5423 C 280.23554,394.60879 279.39294,394.66732 277.77884,394.66641 C 277.49452,396.32773 278.3004,397.73014 279.18536,400.68386 C 281.53123,408.51368 289.29618,415.12706 298.87839,417.45635 C 299.07287,417.50362 297.43796,416.01064 295.6516,413.97609 z M 311.30692,415.19384 C 318.37847,412.23049 323.80321,405.57109 325.48222,397.7923 L 326.18371,394.5423 L 321.14957,394.5423 C 316.11721,394.5423 316.11519,394.54363 315.4505,398.2923 C 314.6386,402.87123 310.6248,411.23894 307.77567,414.2923 C 306.57934,415.90683 304.68935,417.35685 305.28272,417.50834 C 305.87608,417.65983 308.9528,416.18034 311.30692,415.19384 z M 301.0248,394.5423 L 295.44534,394.5423 L 289.86589,394.5423 L 290.56738,397.7923 C 291.70123,403.04538 299.01356,416.1407 300.84165,416.1407 L 301.0248,394.5423 z M 310.05466,406.38114 C 311.11074,404.3675 312.38822,400.88 312.8935,398.63114 L 313.81221,394.5423 L 308.4185,394.5423 L 303.0248,394.5423 L 303.09673,416.0423 L 305.61563,413.0423 C 307.00102,411.3923 308.99859,408.39478 310.05466,406.38114 z M 287.69235,390.48976 C 287.69235,386.86577 291.46919,378.11331 294.61015,373.99843 C 297.853,369.75006 297.9535,369.4252 295.83397,370.04254 C 287.81942,372.37686 279.93471,380.63936 278.41864,388.2923 L 277.7748,391.5423 L 282.8998,391.5423 C 286.47514,391.5423 287.69235,391.40958 287.69235,390.48976 z M 300.98884,380.7923 L 300.95287,370.0423 L 298.43241,373.0423 C 295.20264,376.88655 291.46919,384.12667 290.56856,388.2923 L 289.86589,391.5423 L 295.44534,391.5423 L 301.0248,391.5423 L 300.98884,380.7923 z M 312.86156,387.2923 C 311.7769,382.44318 307.88969,375.73639 305.12844,372.67067 L 302.89182,370.10201 L 303.0248,381.38731 L 303.0248,391.5423 L 308.4185,391.5423 L 313.81221,391.5423 L 312.86156,387.2923 z M 325.55609,388.7923 C 323.31341,379.79568 316.74698,372.71698 308.19428,370.07604 C 306.02584,369.40646 306.11592,369.72298 309.4896,374.62745 C 311.48381,377.52651 313.84382,382.51834 314.73407,385.72039 L 316.3527,391.5423 L 321.29716,391.5423 C 326.19063,391.5423 326.23455,391.51394 325.55609,388.7923 z"
       id="path2476"
       sodipodi:nodetypes="cssccssssccsssssssccccccccccccccccccccccsscssccccccccccccccccccccccccsscccccccccccccccccccccsscccc" />
  </g>
</svg>
